<svg width="57" height="15" viewBox="0 0 57 15" fill="none" xmlns="http://www.w3.org/2000/svg">
<path d="M6.60938 13.8945C6.19922 14.1113 5.58105 14.2197 4.75488 14.2197C2.79785 14.2197 1.81934 13.2031 1.81934 11.1699V7.04785H0.360352V5H1.81934V3.05762L4.58789 2.2666V5H6.60938V7.04785H4.58789V10.6865C4.58789 11.624 4.95996 12.0928 5.7041 12.0928C5.99707 12.0928 6.29883 12.0078 6.60938 11.8379V13.8945ZM15.6709 14H13.043V12.708H13.0078C12.4043 13.7158 11.5107 14.2197 10.3271 14.2197C9.4541 14.2197 8.76562 13.9736 8.26172 13.4814C7.76367 12.9834 7.51465 12.3213 7.51465 11.4951C7.51465 9.74902 8.54883 8.74121 10.6172 8.47168L13.0605 8.14648C13.0605 7.16211 12.5273 6.66992 11.4609 6.66992C10.3887 6.66992 9.36914 6.98926 8.40234 7.62793V5.53613C8.78906 5.33691 9.31641 5.16113 9.98438 5.00879C10.6582 4.85645 11.2705 4.78027 11.8213 4.78027C14.3877 4.78027 15.6709 6.06055 15.6709 8.62109V14ZM13.0605 10.3438V9.7373L11.4258 9.94824C10.5234 10.0654 10.0723 10.4727 10.0723 11.1699C10.0723 11.4863 10.1807 11.7471 10.3975 11.9521C10.6201 12.1514 10.9189 12.251 11.2939 12.251C11.8154 12.251 12.2402 12.0723 12.5684 11.7148C12.8965 11.3516 13.0605 10.8945 13.0605 10.3438ZM17.2793 13.7627V11.5127C17.7363 11.7881 18.1904 11.9932 18.6416 12.1279C19.0986 12.2627 19.5293 12.3301 19.9336 12.3301C20.4258 12.3301 20.8125 12.2627 21.0938 12.1279C21.3809 11.9932 21.5244 11.7881 21.5244 11.5127C21.5244 11.3369 21.46 11.1904 21.3311 11.0732C21.2021 10.9561 21.0352 10.8535 20.8301 10.7656C20.6309 10.6777 20.4111 10.5986 20.1709 10.5283C19.9307 10.458 19.6992 10.3789 19.4766 10.291C19.1191 10.1562 18.8027 10.0127 18.5273 9.86035C18.2578 9.70215 18.0293 9.52051 17.8418 9.31543C17.6602 9.11035 17.5195 8.87305 17.4199 8.60352C17.3262 8.33398 17.2793 8.01465 17.2793 7.64551C17.2793 7.1416 17.3877 6.70801 17.6045 6.34473C17.8271 5.98145 18.1201 5.68555 18.4834 5.45703C18.8525 5.22266 19.2715 5.05273 19.7402 4.94727C20.2148 4.83594 20.707 4.78027 21.2168 4.78027C21.6152 4.78027 22.0195 4.8125 22.4297 4.87695C22.8398 4.93555 23.2441 5.02344 23.6426 5.14062V7.28516C23.291 7.08008 22.9131 6.92773 22.5088 6.82812C22.1104 6.72266 21.7178 6.66992 21.3311 6.66992C21.1494 6.66992 20.9766 6.6875 20.8125 6.72266C20.6543 6.75195 20.5137 6.79883 20.3906 6.86328C20.2676 6.92188 20.1709 7.00098 20.1006 7.10059C20.0303 7.19434 19.9951 7.30273 19.9951 7.42578C19.9951 7.58984 20.0479 7.73047 20.1533 7.84766C20.2588 7.96484 20.3965 8.06738 20.5664 8.15527C20.7363 8.2373 20.9238 8.31348 21.1289 8.38379C21.3398 8.44824 21.5479 8.51562 21.7529 8.58594C22.1221 8.71484 22.4561 8.85547 22.7549 9.00781C23.0537 9.16016 23.3086 9.33887 23.5195 9.54395C23.7363 9.74902 23.9004 9.98926 24.0117 10.2646C24.1289 10.54 24.1875 10.8682 24.1875 11.249C24.1875 11.7822 24.0703 12.2393 23.8359 12.6201C23.6074 12.9951 23.2998 13.3027 22.9131 13.543C22.5322 13.7773 22.0898 13.9473 21.5859 14.0527C21.0879 14.1641 20.5693 14.2197 20.0303 14.2197C19.04 14.2197 18.123 14.0674 17.2793 13.7627ZM34.8135 14H31.4824L28.6084 9.53516H28.5732V14H25.7959V0.675781H28.5732V9.15723H28.6084L31.2891 5H34.585L31.3594 9.22754L34.8135 14ZM44.8857 14H41.5547L38.6807 9.53516H38.6455V14H35.8682V0.675781H38.6455V9.15723H38.6807L41.3613 5H44.6572L41.4316 9.22754L44.8857 14ZM45.3516 13.7627V11.5127C45.8086 11.7881 46.2627 11.9932 46.7139 12.1279C47.1709 12.2627 47.6016 12.3301 48.0059 12.3301C48.498 12.3301 48.8848 12.2627 49.166 12.1279C49.4531 11.9932 49.5967 11.7881 49.5967 11.5127C49.5967 11.3369 49.5322 11.1904 49.4033 11.0732C49.2744 10.9561 49.1074 10.8535 48.9023 10.7656C48.7031 10.6777 48.4834 10.5986 48.2432 10.5283C48.0029 10.458 47.7715 10.3789 47.5488 10.291C47.1914 10.1562 46.875 10.0127 46.5996 9.86035C46.3301 9.70215 46.1016 9.52051 45.9141 9.31543C45.7324 9.11035 45.5918 8.87305 45.4922 8.60352C45.3984 8.33398 45.3516 8.01465 45.3516 7.64551C45.3516 7.1416 45.46 6.70801 45.6768 6.34473C45.8994 5.98145 46.1924 5.68555 46.5557 5.45703C46.9248 5.22266 47.3438 5.05273 47.8125 4.94727C48.2871 4.83594 48.7793 4.78027 49.2891 4.78027C49.6875 4.78027 50.0918 4.8125 50.502 4.87695C50.9121 4.93555 51.3164 5.02344 51.7148 5.14062V7.28516C51.3633 7.08008 50.9854 6.92773 50.5811 6.82812C50.1826 6.72266 49.79 6.66992 49.4033 6.66992C49.2217 6.66992 49.0488 6.6875 48.8848 6.72266C48.7266 6.75195 48.5859 6.79883 48.4629 6.86328C48.3398 6.92188 48.2432 7.00098 48.1729 7.10059C48.1025 7.19434 48.0674 7.30273 48.0674 7.42578C48.0674 7.58984 48.1201 7.73047 48.2256 7.84766C48.3311 7.96484 48.4688 8.06738 48.6387 8.15527C48.8086 8.2373 48.9961 8.31348 49.2012 8.38379C49.4121 8.44824 49.6201 8.51562 49.8252 8.58594C50.1943 8.71484 50.5283 8.85547 50.8271 9.00781C51.126 9.16016 51.3809 9.33887 51.5918 9.54395C51.8086 9.74902 51.9727 9.98926 52.084 10.2646C52.2012 10.54 52.2598 10.8682 52.2598 11.249C52.2598 11.7822 52.1426 12.2393 51.9082 12.6201C51.6797 12.9951 51.3721 13.3027 50.9854 13.543C50.6045 13.7773 50.1621 13.9473 49.6582 14.0527C49.1602 14.1641 48.6416 14.2197 48.1025 14.2197C47.1123 14.2197 46.1953 14.0674 45.3516 13.7627Z" fill="#F15025"/>
<path d="M55.1074 14.2197C54.6504 14.2197 54.2695 14.0791 53.9648 13.7979C53.6602 13.5166 53.5078 13.1709 53.5078 12.7607C53.5078 12.3389 53.6631 11.9932 53.9736 11.7236C54.29 11.4541 54.6826 11.3193 55.1514 11.3193C55.626 11.3193 56.0127 11.457 56.3115 11.7324C56.6162 12.002 56.7686 12.3447 56.7686 12.7607C56.7686 13.1885 56.6133 13.54 56.3027 13.8154C55.998 14.085 55.5996 14.2197 55.1074 14.2197Z" fill="#3F3F44"/>
</svg>
